<?xml version="1.0" encoding="utf-8"?>
<!-- Generator: Adobe Illustrator 23.0.3, SVG Export Plug-In . SVG Version: 6.00 Build 0)  -->
<svg version="1.1" id="_x31_6" xmlns="http://www.w3.org/2000/svg" xmlns:xlink="http://www.w3.org/1999/xlink" x="0px" y="0px" viewBox="0 0 102.92 102.49" style="enable-background:new 0 0 102.92 102.49;" xml:space="preserve">
    <style type="text/css">
        .st0 {
            fill: #FFF;
        }

        .st1 {
            fill-rule: evenodd;
            clip-rule: evenodd;
            fill: #FFF;
        }

    </style>
    <path class="st0" d="M51.52,2C65.2,2,77.57,7.57,86.53,16.5c8.97,8.97,14.5,21.36,14.5,35.04c0,13.65-5.54,26.05-14.5,35.01
	c-8.97,8.94-21.33,14.5-35.01,14.5c-13.68,0-26.05-5.57-35.01-14.5C7.54,77.59,2,65.2,2,51.55C2,37.86,7.54,25.47,16.51,16.5
	C25.47,7.57,37.84,2,51.52,2L51.52,2z M83.79,19.25C75.54,10.99,64.13,5.89,51.52,5.89c-12.61,0-24.02,5.1-32.27,13.35
	C10.97,27.5,5.87,38.93,5.87,51.55c0,12.58,5.1,24.02,13.38,32.27C27.5,92.07,38.9,97.2,51.52,97.2c12.61,0,24.02-5.13,32.27-13.38
	c8.28-8.25,13.38-19.69,13.38-32.27C97.17,38.93,92.07,27.5,83.79,19.25L83.79,19.25z" />
    <path class="st1" d="M76.8,36.11c-1.84,0.8-3.84,1.34-5.95,1.62c2.16-1.29,3.81-3.26,4.58-5.68c-2,1.18-4.25,2.03-6.61,2.49
	c-1.87-2-4.58-3.23-7.6-3.23c-5.7,0-10.37,4.58-10.37,10.2c0,0.82,0.14,1.59,0.3,2.33c-8.64-0.41-16.29-4.47-21.39-10.67
	c-0.88,1.54-1.42,3.26-1.42,5.13c0,3.56,1.86,6.69,4.61,8.5c-1.7-0.03-3.29-0.49-4.69-1.26c0,0.06,0,0.08,0,0.14
	c0,1.32,0.25,2.52,0.71,3.67c1.26,3.21,4.14,5.62,7.62,6.31c-0.91,0.25-1.78,0.38-2.74,0.38c-0.66,0-1.32-0.08-1.95-0.22
	c1.34,4.06,5.16,7.02,9.68,7.13c-3.57,2.74-8.01,4.36-12.86,4.36c-0.85,0-1.64-0.06-2.49-0.14c4.61,2.88,10.06,4.58,15.9,4.58
	c16.2,0,26.21-11.21,28.82-22.87c0.47-2.08,0.69-4.14,0.69-6.17c0-0.44,0-0.9,0-1.32C73.64,39.95,75.43,38.14,76.8,36.11L76.8,36.11
	z" />
</svg>
